# Blender v3.1.2 OBJ File: 'porsche.blend'
# www.blender.org
mtllib windshield_front.mtl
o car.005
v -1.663685 -0.602715 -0.725617
v -1.561957 -0.603981 -0.667788
v -1.683524 0.008922 -0.711265
v -1.498218 -1.278935 -0.685516
v -1.598680 -1.286955 -0.743767
v -1.370319 -1.886773 -0.698602
v -1.469515 -1.898592 -0.755164
v -1.252550 -2.436782 -0.788511
v -0.967626 -2.836098 -0.804129
v -0.882782 -2.811616 -0.746300
v -0.809335 -2.878309 -0.738280
v -0.725335 -2.893927 -0.699868
v 0.326563 -2.452400 0.074281
v 0.446442 -2.579878 0.084834
v 1.234944 -2.337164 0.588411
v 1.278843 -2.456621 0.561396
v 0.551126 -2.691737 0.092432
v -0.713516 -3.048420 -0.766984
v 1.359888 -2.386973 0.633577
v 1.415185 -2.287777 0.700270
v 1.299104 -2.273848 0.644974
v 1.300371 -2.186049 0.681275
v 1.398300 -2.119356 0.761054
v -0.076130 -1.470995 0.114382
v 1.128572 -1.378553 0.780471
v 1.063567 -0.639439 0.806220
v 1.254783 -1.369689 0.849697
v -0.192632 -0.622132 0.116914
v -1.581796 0.008922 -0.653436
v -0.215004 0.010189 0.125779
v 0.435468 -0.630785 0.461567
v -0.193476 0.642509 0.116914
v -1.562801 0.622248 -0.667788
v 1.036974 0.011033 0.808752
v 1.062301 0.661926 0.806220
v 1.164451 0.011455 0.878401
v 1.189778 -0.640705 0.875446
v 1.188512 0.663193 0.875446
v 1.126039 1.401041 0.780471
v 1.252250 1.392176 0.849697
v 1.296994 2.208959 0.681275
v 1.394923 2.142266 0.761054
v 1.411386 2.310688 0.700270
v 1.356089 2.409883 0.633577
v 1.295305 2.296758 0.644974
v 1.231145 2.359653 0.588411
v 0.442643 2.601099 0.084834
v 0.546904 2.713380 0.092432
v 1.274622 2.479532 0.561396
v -0.718581 3.067953 -0.766984
v -0.813556 2.897843 -0.738280
v -0.972269 2.855209 -0.804129
v -0.729978 2.913460 -0.699868
v -0.887003 2.830727 -0.746300
v 0.322764 2.473622 0.074281
v -0.078240 1.491794 0.114382
v -1.500329 1.297202 -0.685516
v -1.373273 1.905462 -0.698602
v -1.472469 1.916859 -0.755164
v -1.256349 2.455471 -0.788511
v -1.600791 1.304800 -0.743767
v -1.664529 0.620982 -0.725617
vt 0.576900 0.555300
vt 0.576900 0.555300
vt 0.576900 0.555300
vt 0.576900 0.555300
vt 0.576900 0.555300
vt 0.576900 0.555300
vt 0.576900 0.555300
vt 0.576900 0.555300
vt 0.576900 0.555300
vt 0.576900 0.555300
vt 0.667800 0.573000
vt 0.667800 0.573000
vt 0.667800 0.573000
vt 0.576900 0.555300
vt 0.740100 0.575100
vt 0.744900 0.517700
vt 0.746100 0.523700
vt 0.670500 0.567300
vt 0.674900 0.575300
vt 0.670500 0.567300
vt 0.671400 0.562900
vt 0.576900 0.555300
vt 0.576900 0.555300
vt 0.576900 0.555300
vt 0.576900 0.555300
vt 0.576900 0.555300
vt 0.576900 0.555300
vt 0.576900 0.555300
vt 0.576900 0.555300
vt 0.576900 0.555300
vt 0.734100 0.612300
vt 0.732400 0.612900
vt 0.735400 0.609200
vt 0.576900 0.555300
vt 0.576900 0.555300
vt 0.576900 0.555300
vt 0.672600 0.562600
vt 0.678100 0.569100
vt 0.716700 0.609300
vt 0.718400 0.559000
vt 0.702000 0.581500
vt 0.702200 0.607700
vt 0.576900 0.555300
vt 0.576900 0.555300
vt 0.701800 0.555300
vt 0.701400 0.497700
vt 0.689400 0.497400
vt 0.689500 0.554900
vt 0.684550 0.566750
vt 0.689500 0.569800
vt 0.684600 0.569700
vt 0.684800 0.576200
vt 0.677500 0.497800
vt 0.694200 0.576200
vt 0.694300 0.569700
vt 0.689500 0.606900
vt 0.677100 0.555500
vt 0.676800 0.607800
vt 0.576900 0.555300
vt 0.576900 0.555300
vt 0.576900 0.555300
vt 0.576900 0.555300
vt 0.576900 0.555300
vt 0.576900 0.555300
vt 0.576900 0.555300
vt 0.576900 0.555300
vt 0.576900 0.555300
vt 0.576900 0.555300
vt 0.576900 0.555300
vt 0.576900 0.555300
vt 0.576900 0.555300
vt 0.706300 0.562600
vt 0.707500 0.562900
vt 0.706300 0.562600
vt 0.708400 0.567300
vt 0.576900 0.555300
vt 0.576900 0.555300
vt 0.576900 0.555300
vt 0.576900 0.555300
vt 0.576900 0.555300
vt 0.576900 0.555300
vt 0.576900 0.555300
vt 0.711600 0.572700
vt 0.711600 0.572700
vt 0.711600 0.572700
vt 0.641400 0.571400
vt 0.632800 0.524200
vt 0.634400 0.518300
vt 0.708400 0.567300
vt 0.660600 0.559200
vt 0.646600 0.613300
vt 0.662400 0.609500
vt 0.652400 0.503500
vt 0.700800 0.569100
vt 0.699400 0.575900
vt 0.700100 0.563400
vt 0.694400 0.563800
vt 0.664300 0.499600
vt 0.576900 0.555300
vt 0.576900 0.555300
vt 0.576900 0.555300
vt 0.576900 0.555300
vt 0.576900 0.555300
vt 0.576900 0.555300
vt 0.576900 0.555300
vt 0.576900 0.555300
vt 0.576900 0.555300
vt 0.714600 0.499400
vt 0.726400 0.503200
vt 0.684500 0.563800
vn -0.4970 -0.0556 0.8660
vn -0.4947 -0.0586 0.8671
vn -0.4943 -0.0880 0.8648
vn -0.4950 -0.0361 0.8681
vn -0.4950 -0.0123 0.8688
vn -0.4887 -0.1032 0.8663
vn -0.4419 -0.1755 0.8797
vn -0.4722 -0.1789 0.8632
vn -0.4165 -0.2731 0.8672
vn -0.4444 -0.3759 0.8131
vn -0.4540 -0.3559 0.8168
vn -0.3869 -0.3071 0.8695
vn -0.4439 -0.3905 0.8065
vn -0.4462 -0.3794 0.8105
vn -0.4438 -0.3943 0.8047
vn -0.4366 -0.3578 0.8254
vn -0.4556 -0.3451 0.8206
vn -0.4547 -0.2953 0.8403
vn -0.4755 -0.2935 0.8293
vn -0.4248 -0.3347 0.8411
vn -0.4316 -0.3450 0.8335
vn -0.4401 -0.3632 0.8212
vn -0.4418 -0.3839 0.8108
vn -0.4335 -0.3449 0.8325
vn -0.4391 -0.3345 0.8338
vn -0.4385 -0.3480 0.8286
vn -0.4416 -0.3339 0.8328
vn -0.4368 -0.3252 0.8387
vn -0.4297 -0.3315 0.8399
vn -0.4318 -0.3174 0.8443
vn -0.4087 -0.3427 0.8459
vn -0.4443 -0.2762 0.8523
vn -0.4704 -0.2982 0.8305
vn -0.4786 -0.2495 0.8418
vn -0.5258 -0.2130 0.8235
vn -0.4694 -0.2271 0.8533
vn -0.4746 -0.1154 0.8726
vn -0.4840 -0.1274 0.8658
vn -0.4782 -0.0541 0.8766
vn -0.4802 -0.0417 0.8762
vn -0.4711 -0.1321 0.8721
vn -0.4748 -0.1127 0.8728
vn -0.4774 -0.0725 0.8757
vn -0.4787 -0.0683 0.8753
vn -0.4902 -0.0478 0.8703
vn -0.4960 -0.0103 0.8683
vn -0.4879 0.0016 0.8729
vn -0.4965 0.0446 0.8669
vn -0.4886 0.0480 0.8712
vn -0.4796 0.0093 0.8775
vn -0.4803 0.0540 0.8755
vn -0.4802 -0.0076 0.8771
vn -0.4802 0.0071 0.8771
vn -0.4813 0.0384 0.8757
vn -0.4812 -0.0395 0.8757
vn -0.4824 -0.0484 0.8746
vn -0.4808 0.0553 0.8751
vn -0.4727 0.1381 0.8703
vn -0.4923 0.1588 0.8558
vn -0.4773 0.0727 0.8757
vn -0.4904 0.2709 0.8283
vn -0.5341 0.1987 0.8217
vn -0.4489 0.2942 0.8437
vn -0.4408 0.3326 0.8337
vn -0.4399 0.3234 0.8378
vn -0.4373 0.3245 0.8387
vn -0.4309 0.3410 0.8355
vn -0.4094 0.3420 0.8459
vn -0.4227 0.3340 0.8425
vn -0.4094 0.3420 0.8458
vn -0.4439 0.3419 0.8283
vn -0.4486 0.2898 0.8455
vn -0.4362 0.3499 0.8290
vn -0.4406 0.3632 0.8210
vn -0.4355 0.3498 0.8294
vn -0.4442 0.3783 0.8122
vn -0.4414 0.3861 0.8100
vn -0.4426 0.3841 0.8103
vn -0.4450 0.3752 0.8131
vn -0.4444 0.3937 0.8047
vn -0.4439 0.3510 0.8245
vn -0.4453 0.3771 0.8121
vn -0.4566 0.3073 0.8349
vn -0.4965 0.2369 0.8351
vn -0.4813 0.1669 0.8605
vn -0.4307 0.3357 0.8377
vn -0.4766 0.2058 0.8547
vn -0.4724 0.1670 0.8654
vn -0.4742 0.2003 0.8573
vn -0.4976 0.0872 0.8630
vn -0.4781 0.0719 0.8754
vn -0.4259 0.1933 0.8839
vn -0.4782 0.1589 0.8637
vn -0.4888 0.1024 0.8664
vn -0.4169 0.2724 0.8672
vn -0.3874 0.3065 0.8695
vn -0.4547 0.3552 0.8167
vn -0.4921 0.0940 0.8655
vn -0.4948 0.0465 0.8678
vn -0.4947 0.0578 0.8671
vn -0.4946 0.0690 0.8664
vn -0.4950 0.0115 0.8688
vn -0.4425 0.3861 0.8094
vn -0.4946 -0.0529 0.8675
vn -0.4828 -0.1747 0.8581
usemtl default
s 1
f 2/1/1 1/2/2 4/3/3
f 1/2/2 2/1/4 3/4/5
f 5/5/6 4/3/3 1/2/2
f 4/3/3 5/5/6 6/6/7
f 7/7/8 6/6/7 5/5/6
f 8/8/9 6/6/7 7/7/8
f 8/8/9 9/9/10 10/10/11
f 6/6/7 8/8/9 10/10/12
f 11/11/13 12/12/14 10/13/15
f 10/10/12 9/9/10 11/14/13
f 14/15/16 10/16/17 12/17/14
f 10/13/17 13/18/18 6/19/19
f 10/13/17 14/20/16 13/18/18
f 15/21/20 13/18/18 14/20/16
f 15/22/20 14/23/16 16/24/21
f 16/24/21 14/23/16 17/25/22
f 12/26/14 17/25/22 14/23/16
f 17/25/22 12/26/14 18/27/23
f 11/14/13 18/27/23 12/26/14
f 18/27/23 11/14/13 9/9/10
f 16/24/24 19/28/25 15/22/26
f 20/29/27 21/30/28 19/28/25
f 15/22/29 19/28/30 21/30/28
f 21/31/31 22/32/32 15/33/20
f 21/30/28 20/29/27 22/34/33
f 23/35/34 22/34/33 20/29/27
f 22/34/33 23/35/34 25/36/35
f 13/18/18 22/37/32 24/38/36
f 25/39/37 24/40/38 22/32/32
f 22/37/32 13/18/18 15/21/20
f 31/41/39 25/39/37 26/42/40
f 25/36/41 27/43/42 26/44/43
f 27/43/42 25/36/41 23/35/34
f 24/40/38 25/39/37 28/45/44
f 2/46/1 28/45/45 29/47/46
f 30/48/47 29/47/46 28/45/45
f 31/49/39 30/50/47 28/51/45
f 28/51/45 2/52/1 24/38/38
f 29/47/46 30/48/47 33/53/48
f 33/54/48 30/50/47 32/55/49
f 30/48/47 34/56/50 32/57/49
f 34/56/50 30/48/47 26/42/40
f 35/58/51 32/57/49 34/56/50
f 34/59/52 36/60/53 35/61/54
f 36/60/53 34/59/52 37/62/55
f 26/44/56 37/62/55 34/59/52
f 37/62/55 26/44/56 27/43/42
f 38/63/57 35/61/54 36/60/53
f 35/61/54 38/63/57 39/64/58
f 40/65/59 39/64/60 38/63/57
f 42/66/61 41/67/62 40/65/59
f 39/64/58 40/65/59 41/67/63
f 43/68/64 41/67/63 42/66/61
f 44/69/65 45/70/66 43/68/64
f 41/67/63 43/68/64 45/70/66
f 45/70/66 44/69/65 46/71/67
f 45/72/68 46/73/69 41/74/70
f 46/73/69 47/75/71 41/74/72
f 46/71/67 48/76/73 47/77/74
f 49/78/75 48/76/73 46/71/67
f 49/78/75 46/71/67 44/69/65
f 50/79/76 47/77/74 48/76/73
f 51/80/77 53/81/78 50/79/76
f 50/79/76 52/82/79 51/80/77
f 47/77/74 50/79/76 53/81/78
f 51/83/80 54/84/81 53/85/82
f 55/86/83 53/87/82 54/88/81
f 53/85/82 55/89/83 47/75/71
f 54/88/84 56/90/85 55/86/83
f 47/75/86 55/89/83 41/74/72
f 41/91/72 55/86/87 39/92/88
f 39/92/88 55/86/83 56/90/85
f 54/88/81 58/93/89 56/90/85
f 32/55/49 56/94/85 57/95/90
f 56/90/85 32/57/49 35/58/51
f 39/96/88 56/94/91 35/97/51
f 57/98/90 56/90/85 58/93/89
f 58/99/92 59/100/93 57/101/94
f 59/100/93 58/99/92 60/102/95
f 54/103/96 60/102/95 58/99/92
f 52/82/79 60/102/95 54/103/97
f 61/104/98 57/101/94 59/100/93
f 62/105/99 33/106/100 61/104/98
f 57/101/94 61/104/101 33/106/100
f 33/106/100 62/105/99 29/107/102
f 3/4/5 29/107/102 62/105/99
f 33/54/48 32/55/49 57/95/90
f 54/103/96 51/80/103 52/82/79
f 29/107/102 3/4/5 2/1/104
f 24/38/38 6/19/105 13/18/18
f 4/108/3 24/40/38 2/46/1
f 6/109/105 24/40/38 4/108/3
f 31/41/39 28/45/45 25/39/37
f 31/49/39 26/110/40 30/50/47
