# Blender v3.1.2 OBJ File: 'porsche.blend'
# www.blender.org
mtllib windshield_back.mtl
o car.009
v -0.886786 2.028319 0.225637
v -1.011731 1.997083 0.272913
v 0.324247 1.774209 -0.091368
v 0.297232 1.975133 -0.140333
v -0.901137 2.163395 0.185536
v -1.081379 2.143977 0.250119
v -1.206323 2.093746 0.304149
v -1.074625 1.932500 0.310481
v -1.260353 2.022832 0.341295
v -1.303830 1.833305 0.409677
v -1.090243 1.825707 0.346360
v -1.089821 1.345345 0.412209
v -1.294544 1.349145 0.474259
v -1.088977 0.645909 0.452310
v -1.288634 0.646754 0.512672
v -1.088554 -0.000763 0.461174
v -1.294544 -0.001185 0.525757
v -1.287790 -0.649124 0.512672
v -1.088132 -0.647435 0.452310
v 0.363081 -1.317746 -0.039871
v -1.087710 -1.346871 0.412209
v 0.386720 -0.629707 -0.011589
v 0.388830 0.000081 -0.007790
v 1.535703 -0.619576 -0.423991
v 1.501512 -1.297485 -0.454805
v 1.444105 -1.731413 -0.490684
v 1.695260 -1.722127 -0.584815
v 1.770818 -0.954309 -0.533317
v 1.799521 0.001348 -0.512634
v 1.534858 0.622271 -0.423991
v 1.769130 0.957004 -0.533317
v 1.545833 0.001348 -0.418503
v 0.385875 0.630291 -0.011589
v 0.360971 1.317908 -0.039871
v 1.499401 1.299758 -0.454805
v 1.441150 1.733687 -0.490684
v 1.692305 1.724822 -0.584815
v 1.380788 1.857365 -0.489418
v 1.637009 2.063777 -0.623649
v 1.271040 1.920259 -0.459870
v 0.275282 2.130892 -0.177901
v 1.383743 -1.855092 -0.489418
v 1.639964 -2.061081 -0.623649
v 0.278659 -2.130307 -0.177901
v 1.273995 -1.918408 -0.459870
v 0.300187 -1.974549 -0.140333
v 0.327202 -1.773624 -0.091368
v -1.087288 -1.827654 0.346360
v -1.071670 -1.934448 0.310481
v -0.883409 -2.029423 0.225637
v -1.008354 -1.998609 0.272913
v -1.078002 -2.145503 0.250119
v -1.202946 -2.095694 0.304149
v -1.256976 -2.024780 0.341295
v -1.300876 -1.835252 0.409677
v -1.292433 -1.351092 0.474259
v -0.897339 -2.164920 0.185536
vt 0.576900 0.555300
vt 0.576900 0.555300
vt 0.576900 0.555300
vt 0.705000 0.539600
vt 0.705000 0.539600
vt 0.703100 0.533800
vt 0.704600 0.534000
vt 0.576900 0.555300
vt 0.576900 0.555300
vt 0.576900 0.555300
vt 0.576900 0.555300
vt 0.576900 0.555300
vt 0.576900 0.555300
vt 0.576900 0.555300
vt 0.576900 0.555300
vt 0.576900 0.555300
vt 0.576900 0.555300
vt 0.576900 0.555300
vt 0.576900 0.555300
vt 0.576900 0.555300
vt 0.576900 0.555300
vt 0.576900 0.555300
vt 0.684600 0.533600
vt 0.689500 0.540600
vt 0.684500 0.540600
vt 0.679100 0.540600
vt 0.679300 0.533700
vt 0.576900 0.555300
vt 0.689500 0.533600
vt 0.684700 0.528100
vt 0.679500 0.528300
vt 0.676200 0.528500
vt 0.576900 0.555300
vt 0.576900 0.555300
vt 0.576900 0.555300
vt 0.576900 0.555300
vt 0.576900 0.555300
vt 0.576900 0.555300
vt 0.576900 0.555300
vt 0.576900 0.555300
vt 0.576900 0.555300
vt 0.694200 0.528100
vt 0.694300 0.533600
vt 0.689500 0.528100
vt 0.699600 0.533700
vt 0.694400 0.540600
vt 0.699800 0.540600
vt 0.703400 0.540600
vt 0.699400 0.528300
vt 0.702700 0.528500
vt 0.576900 0.555300
vt 0.576900 0.555300
vt 0.576900 0.555300
vt 0.576900 0.555300
vt 0.576900 0.555300
vt 0.576900 0.555300
vt 0.576900 0.555300
vt 0.704200 0.529400
vt 0.704200 0.529400
vt 0.576900 0.555300
vt 0.576900 0.555300
vt 0.576900 0.555300
vt 0.576900 0.555300
vt 0.675800 0.533800
vt 0.674700 0.529400
vt 0.676200 0.528500
vt 0.576900 0.555300
vt 0.674300 0.534000
vt 0.675500 0.540600
vt 0.675500 0.540600
vt 0.673900 0.539600
vt 0.673900 0.539600
vt 0.576900 0.555300
vt 0.576900 0.555300
vt 0.576900 0.555300
vt 0.576900 0.555300
vt 0.576900 0.555300
vt 0.576900 0.555300
vt 0.576900 0.555300
vt 0.576900 0.555300
vt 0.576900 0.555300
vt 0.576900 0.555300
vt 0.705000 0.539600
vn 0.2892 0.2923 0.9116
vn 0.2859 0.2858 0.9146
vn 0.2811 0.2741 0.9197
vn 0.2928 0.2420 0.9250
vn 0.2931 0.2450 0.9242
vn 0.3149 0.1983 0.9282
vn 0.3047 0.2642 0.9151
vn 0.2957 0.2635 0.9182
vn 0.2891 0.2922 0.9116
vn 0.2999 0.2747 0.9136
vn 0.2940 0.2991 0.9078
vn 0.2919 0.2804 0.9144
vn 0.2819 0.2708 0.9204
vn 0.2836 0.2681 0.9207
vn 0.2809 0.2698 0.9210
vn 0.2852 0.2002 0.9373
vn 0.2904 0.1985 0.9361
vn 0.2850 0.1301 0.9497
vn 0.2896 0.0805 0.9538
vn 0.2893 0.0933 0.9527
vn 0.2897 0.0549 0.9556
vn 0.2929 0.0283 0.9557
vn 0.2940 0.0360 0.9551
vn 0.2953 0.0031 0.9554
vn 0.2956 -0.0042 0.9553
vn 0.2961 -0.0279 0.9548
vn 0.2900 -0.0416 0.9561
vn 0.3200 -0.0318 0.9469
vn 0.2942 -0.0918 0.9513
vn 0.3202 -0.0907 0.9430
vn 0.3002 -0.0495 0.9526
vn 0.3190 0.0006 0.9478
vn 0.3364 -0.0266 0.9413
vn 0.3397 -0.0914 0.9361
vn 0.3428 -0.0503 0.9381
vn 0.3388 -0.1361 0.9310
vn 0.3516 -0.1429 0.9252
vn 0.3519 -0.1238 0.9278
vn 0.3657 -0.0948 0.9259
vn 0.3768 -0.0640 0.9241
vn 0.3659 -0.1415 0.9198
vn 0.3610 -0.0351 0.9319
vn 0.3665 0.0003 0.9304
vn 0.3479 0.0002 0.9375
vn 0.3610 0.0356 0.9319
vn 0.3767 0.0646 0.9241
vn 0.3371 0.0319 0.9409
vn 0.3181 0.0307 0.9476
vn 0.3360 0.0033 0.9418
vn 0.3193 0.0925 0.9431
vn 0.3013 0.0341 0.9529
vn 0.3001 0.0550 0.9523
vn 0.2979 0.0899 0.9503
vn 0.3001 0.0072 0.9539
vn 0.3420 0.0966 0.9347
vn 0.3416 0.0606 0.9379
vn 0.2972 0.1299 0.9459
vn 0.3381 0.1225 0.9331
vn 0.3378 0.1394 0.9308
vn 0.3655 0.0954 0.9259
vn 0.3622 0.1377 0.9219
vn 0.3514 0.1435 0.9252
vn 0.3497 0.1643 0.9223
vn 0.3370 0.1938 0.9213
vn 0.3059 0.2581 0.9164
vn 0.3247 0.2273 0.9181
vn 0.3266 0.2082 0.9219
vn 0.3378 0.1535 0.9286
vn 0.3500 -0.1637 0.9223
vn 0.3373 -0.1933 0.9213
vn 0.3250 -0.2268 0.9181
vn 0.3033 -0.2679 0.9145
vn 0.3108 -0.1984 0.9295
vn 0.3269 -0.2077 0.9219
vn 0.3383 -0.1517 0.9287
vn 0.3053 -0.2621 0.9155
vn 0.3052 -0.2637 0.9150
vn 0.2978 -0.1301 0.9457
vn 0.3397 -0.1391 0.9302
vn 0.2968 -0.1984 0.9341
vn 0.2988 -0.0909 0.9500
vn 0.2944 -0.2668 0.9177
vn 0.2937 -0.2476 0.9233
vn 0.2935 -0.2446 0.9242
vn 0.2961 -0.2635 0.9181
vn 0.2932 -0.2415 0.9250
vn 0.2822 -0.2771 0.9185
vn 0.2829 -0.2675 0.9211
vn 0.2825 -0.2703 0.9204
vn 0.2864 -0.2854 0.9146
vn 0.2902 -0.2794 0.9153
vn 0.2836 -0.2685 0.9206
vn 0.2857 -0.2223 0.9322
vn 0.2842 -0.1996 0.9378
vn 0.2853 -0.1314 0.9494
vn 0.2880 -0.1052 0.9518
vn 0.2896 -0.0545 0.9556
vn 0.2897 -0.0920 0.9527
vn 0.2911 -0.2986 0.9089
vn 0.2898 -0.2989 0.9092
vn 0.2933 0.2481 0.9233
usemtl default
s 1
f 1/1/1 6/2/2 2/3/3
f 1/4/4 2/5/5 3/6/6
f 3/6/6 4/7/7 1/4/8
f 1/1/9 4/8/10 5/9/11
f 6/2/2 1/1/1 5/9/12
f 7/10/13 2/3/3 6/2/2
f 9/11/14 8/12/15 7/10/13
f 2/3/3 7/10/13 8/12/15
f 10/13/16 8/12/15 9/11/14
f 8/12/15 10/13/16 11/14/17
f 11/14/17 10/13/16 12/15/18
f 13/16/19 12/15/20 10/13/16
f 12/15/20 13/16/19 14/17/21
f 15/18/22 14/17/23 13/16/19
f 14/17/23 15/18/22 16/19/24
f 17/20/25 16/19/24 15/18/22
f 16/19/24 17/20/25 19/21/26
f 18/22/27 19/21/26 17/20/25
f 22/23/28 16/24/24 19/25/26
f 21/26/29 20/27/30 19/25/26
f 19/25/31 20/27/30 22/23/28
f 19/21/26 18/22/27 21/28/29
f 16/24/24 22/23/28 23/29/32
f 24/30/33 23/29/32 22/23/28
f 24/30/33 22/23/28 25/31/34
f 25/31/35 22/23/28 20/27/30
f 25/31/34 20/27/30 26/32/36
f 26/33/37 27/34/38 25/35/39
f 28/36/40 25/35/39 27/34/41
f 25/35/39 28/36/40 24/37/42
f 29/38/43 24/37/42 28/36/40
f 32/39/44 29/38/43 30/40/45
f 31/41/46 30/40/45 29/38/43
f 24/37/42 29/38/43 32/39/44
f 30/42/47 33/43/48 32/44/49
f 23/29/32 32/44/49 33/43/48
f 32/44/49 23/29/32 24/30/33
f 34/45/50 33/43/48 30/42/47
f 14/46/51 33/43/48 12/47/52
f 33/43/48 34/45/50 12/47/53
f 33/43/48 14/46/54 23/29/32
f 34/45/50 3/6/6 11/48/17
f 3/6/6 34/45/50 35/49/55
f 35/49/55 34/45/50 30/42/56
f 11/48/57 12/47/53 34/45/50
f 35/49/58 36/50/59 3/6/6
f 35/51/60 37/52/61 36/53/62
f 30/40/45 31/41/46 35/51/60
f 37/52/61 35/51/60 31/41/46
f 38/54/63 36/53/62 37/52/61
f 39/55/64 38/54/63 37/52/61
f 41/56/65 40/57/66 39/55/64
f 38/54/63 39/55/64 40/57/66
f 5/9/12 4/8/10 41/56/65
f 40/57/66 41/56/65 4/8/10
f 40/58/67 3/6/6 38/59/68
f 4/7/7 3/6/6 40/58/67
f 38/59/68 3/6/6 36/50/59
f 26/33/37 42/60/69 27/34/41
f 27/34/41 42/60/69 43/61/70
f 45/62/71 43/61/70 42/60/69
f 43/61/70 45/62/71 44/63/72
f 47/64/73 45/65/74 42/66/75
f 46/67/76 44/63/72 45/62/71
f 45/65/74 47/64/73 46/68/77
f 21/26/78 47/64/73 20/27/30
f 26/32/36 20/27/30 47/64/73
f 26/32/79 47/64/73 42/66/75
f 48/69/80 47/64/73 21/26/81
f 47/64/73 48/69/80 49/70/82
f 49/70/83 51/71/84 47/64/73
f 46/68/77 47/64/73 50/72/85
f 50/72/86 47/64/73 51/71/84
f 51/73/87 49/74/88 53/75/89
f 51/73/87 52/76/90 50/77/91
f 53/75/89 52/76/90 51/73/87
f 54/78/92 53/75/89 49/74/88
f 49/74/88 48/79/93 54/78/92
f 55/80/94 54/78/92 48/79/93
f 55/80/94 48/79/95 56/81/96
f 56/81/96 21/28/97 18/22/27
f 21/28/98 56/81/96 48/79/93
f 57/82/99 50/77/91 52/76/90
f 57/82/99 44/63/72 50/77/100
f 44/63/72 46/67/76 50/77/91
f 16/24/24 23/29/32 14/46/23
f 8/83/15 11/48/17 3/6/6
f 8/83/101 3/6/6 2/5/5
