# Blender v3.1.2 OBJ File: 'porsche.blend'
# www.blender.org
mtllib window_back_right.mtl
o car.015
v -0.066434 -0.020196 0.095445
v -0.110334 0.179462 -0.354102
v -1.335297 0.079422 0.128792
v -0.835518 -0.159914 0.552590
v -0.039419 -0.138809 0.332671
v 0.668037 -0.102085 0.073496
v 0.591635 0.087442 -0.296273
v 0.877825 -0.032437 -0.122364
v 0.858409 0.013995 -0.207208
v 0.788760 0.046075 -0.257439
v 0.580238 0.115724 -0.352835
v 0.889223 0.061693 -0.307670
v -0.115399 0.202678 -0.406865
v -1.491477 0.298075 -0.401800
v -1.890793 0.349150 -0.470182
v -1.680583 0.102216 0.134280
v -1.470372 -0.197904 0.738319
v -1.176583 -0.165402 0.620972
v -0.824966 -0.183130 0.602822
v -0.032666 -0.163291 0.381636
v 0.679434 -0.129100 0.124993
v 1.010368 -0.094065 -0.033298
v 0.828861 -0.078869 -0.016414
v 1.093101 -0.070849 -0.116876
v 1.125182 -0.023151 -0.190323
v 1.078750 0.023282 -0.252373
vt 0.677300 0.552100
vt 0.646900 0.507300
vt 0.680400 0.500900
vt 0.737700 0.556500
vt 0.714200 0.546700
vt 0.711000 0.544400
vt 0.714500 0.540700
vt 0.675500 0.579600
vt 0.713000 0.605000
vt 0.642400 0.550200
vt 0.632800 0.527800
vt 0.716200 0.536200
vt 0.717500 0.537600
vt 0.716200 0.536200
vt 0.634400 0.518300
vt 0.637400 0.511800
vt 0.576900 0.555300
vt 0.576900 0.555300
vt 0.576900 0.555300
vt 0.576900 0.555300
vt 0.576900 0.555300
vt 0.576900 0.555300
vt 0.576900 0.555300
vt 0.576900 0.555300
vt 0.576900 0.555300
vt 0.576900 0.555300
vt 0.576900 0.555300
vt 0.576900 0.555300
vt 0.576900 0.555300
vt 0.576900 0.555300
vt 0.576900 0.555300
vt 0.576900 0.555300
vt 0.576900 0.555300
vt 0.576900 0.555300
vt 0.576900 0.555300
vt 0.576900 0.555300
vt 0.714700 0.537200
vt 0.714700 0.537200
vt 0.576900 0.555300
vt 0.576900 0.555300
vt 0.576900 0.555300
vt 0.576900 0.555300
vt 0.576900 0.555300
vt 0.710500 0.546000
vt 0.746100 0.497400
vn 0.0956 0.9029 0.4191
vn 0.0970 0.8963 0.4327
vn 0.0789 0.9190 0.3862
vn 0.0746 0.9082 0.4119
vn 0.0832 0.9011 0.4255
vn 0.1046 0.8943 0.4351
vn 0.1139 0.8921 0.4373
vn 0.1063 0.8879 0.4475
vn 0.0953 0.8896 0.4468
vn 0.0978 0.8945 0.4362
vn 0.0895 0.9000 0.4265
vn 0.0771 0.9101 0.4072
vn 0.0878 0.8885 0.4505
vn 0.0895 0.9001 0.4265
vn 0.0887 0.8876 0.4520
vn 0.0720 0.9264 0.3695
vn 0.0623 0.9385 0.3396
vn 0.0642 0.9309 0.3597
vn 0.0637 0.9214 0.3833
vn 0.0679 0.9034 0.4234
vn 0.0686 0.9061 0.4174
vn 0.0800 0.9060 0.4157
vn 0.1090 0.8934 0.4359
vn 0.0994 0.9006 0.4232
vn 0.0772 0.9111 0.4049
vn 0.1153 0.8919 0.4373
vn 0.1164 0.8907 0.4394
vn 0.1229 0.8967 0.4252
vn 0.1137 0.9082 0.4028
vn 0.1213 0.8868 0.4459
vn 0.1300 0.8735 0.4691
vn 0.1121 0.8577 0.5018
vn 0.1237 0.8200 0.5588
vn 0.1237 0.8201 0.5588
vn 0.0765 0.8723 0.4830
vn 0.1171 0.8350 0.5376
vn 0.0663 0.8892 0.4527
vn 0.0527 0.8957 0.4415
vn 0.0673 0.9293 0.3632
vn 0.0951 0.8938 0.4383
vn 0.0878 0.8885 0.4504
usemtl default
s 1
f 1/1/1 7/2/2 2/3/3
f 1/1/1 2/3/3 3/4/4
f 3/5/4 4/6/5 1/7/1
f 5/8/6 1/1/1 4/9/5
f 6/10/7 1/1/1 5/8/6
f 7/2/2 1/1/1 6/10/7
f 6/10/7 8/11/8 7/2/2
f 9/12/9 7/13/2 8/14/8
f 7/2/2 9/15/9 10/16/10
f 11/17/11 7/18/2 10/19/10
f 7/18/2 11/17/11 2/20/12
f 12/21/13 11/17/14 10/19/15
f 13/22/16 2/20/12 11/17/11
f 15/23/17 14/24/18 13/22/16
f 2/20/12 13/22/16 14/24/18
f 16/25/19 14/24/18 15/23/17
f 14/24/18 16/25/19 3/26/4
f 17/27/20 3/26/4 16/25/19
f 3/26/4 17/27/20 18/28/21
f 19/29/22 18/28/21 17/27/20
f 20/30/23 5/31/24 19/29/22
f 4/32/25 19/29/22 5/31/24
f 18/28/21 19/29/22 4/32/25
f 5/31/24 20/30/23 6/33/26
f 21/34/27 6/33/26 20/30/23
f 6/33/26 21/34/27 23/35/28
f 22/36/29 23/35/28 21/34/27
f 8/14/8 6/37/7 23/38/30
f 23/35/28 24/39/31 8/40/32
f 24/39/31 23/35/28 22/36/29
f 25/41/33 8/40/32 24/39/31
f 25/41/34 26/42/35 8/40/36
f 8/40/32 26/42/35 9/43/37
f 12/21/38 9/43/37 26/42/35
f 4/6/5 3/5/4 18/44/21
f 14/45/39 3/4/39 2/3/3
f 10/19/40 9/43/37 12/21/41
